<?xml version="1.0" encoding="UTF-8" standalone="no"?>
<!-- Created with Inkscape (http://www.inkscape.org/) -->

<svg
   xmlns:ns0="http://www.iki.fi/pav/software/textext/"
   xmlns:dc="http://purl.org/dc/elements/1.1/"
   xmlns:cc="http://creativecommons.org/ns#"
   xmlns:rdf="http://www.w3.org/1999/02/22-rdf-syntax-ns#"
   xmlns:svg="http://www.w3.org/2000/svg"
   xmlns="http://www.w3.org/2000/svg"
   xmlns:sodipodi="http://sodipodi.sourceforge.net/DTD/sodipodi-0.dtd"
   xmlns:inkscape="http://www.inkscape.org/namespaces/inkscape"
   width="394.42856"
   height="417.71988"
   id="svg2"
   version="1.1"
   inkscape:version="0.48.3.1 r9886"
   sodipodi:docname="3d_detector_coordinate_frame.svg"
   inkscape:export-filename="/home/wintersb/Development/nexus/definitions/manual/source/img/3d_detector_coordinate_frame.png"
   inkscape:export-xdpi="300"
   inkscape:export-ydpi="300">
  <sodipodi:namedview
     id="base"
     pagecolor="#ffffff"
     bordercolor="#666666"
     borderopacity="1.0"
     inkscape:pageopacity="0.0"
     inkscape:pageshadow="2"
     inkscape:zoom="1.4"
     inkscape:cx="149.31421"
     inkscape:cy="214.65774"
     inkscape:document-units="px"
     inkscape:current-layer="layer1"
     showgrid="true"
     inkscape:window-width="1920"
     inkscape:window-height="1144"
     inkscape:window-x="1600"
     inkscape:window-y="27"
     inkscape:window-maximized="1"
     fit-margin-top="0"
     fit-margin-left="0"
     fit-margin-right="0"
     fit-margin-bottom="0">
    <inkscape:grid
       spacingy="1mm"
       spacingx="1mm"
       units="mm"
       snapvisiblegridlinesonly="true"
       enabled="true"
       visible="true"
       empspacing="4"
       id="grid2985"
       type="xygrid"
       originx="-45.040533mm"
       originy="-79.63443mm" />
  </sodipodi:namedview>
  <defs
     id="defs4">
    <marker
       style="overflow:visible"
       id="Arrow2Lend"
       refX="0"
       refY="0"
       orient="auto"
       inkscape:stockid="Arrow2Lend">
      <path
         transform="matrix(-1.1,0,0,-1.1,-1.1,0)"
         d="M 8.7185878,4.0337352 -2.2072895,0.01601326 8.7185884,-4.0017078 c -1.7454984,2.3720609 -1.7354408,5.6174519 -6e-7,8.035443 z"
         style="fill-rule:evenodd;stroke-width:0.625;stroke-linejoin:round"
         id="path3788"
         inkscape:connector-curvature="0" />
    </marker>
    <inkscape:path-effect
       nr_y="9"
       nr_x="8"
       is_visible="true"
       id="path-effect2989"
       effect="construct_grid" />
    <marker
       style="overflow:visible"
       id="Arrow2LendF"
       refX="0"
       refY="0"
       orient="auto"
       inkscape:stockid="Arrow2LendF">
      <path
         transform="matrix(-1.1,0,0,-1.1,-1.1,0)"
         d="M 8.7185878,4.0337352 -2.2072895,0.01601326 8.7185884,-4.0017078 c -1.7454984,2.3720609 -1.7354408,5.6174519 -6e-7,8.035443 z"
         style="fill:#2bff00;fill-rule:evenodd;stroke:#2bff00;stroke-width:0.625;stroke-linejoin:round"
         id="path4213"
         inkscape:connector-curvature="0" />
    </marker>
    <marker
       style="overflow:visible"
       id="Arrow2LendF-2"
       refX="0"
       refY="0"
       orient="auto"
       inkscape:stockid="Arrow2LendF">
      <path
         inkscape:connector-curvature="0"
         transform="matrix(-1.1,0,0,-1.1,-1.1,0)"
         d="M 8.7185878,4.0337352 -2.2072895,0.01601326 8.7185884,-4.0017078 c -1.7454984,2.3720609 -1.7354408,5.6174519 -6e-7,8.035443 z"
         style="fill:#2bff00;fill-rule:evenodd;stroke:#2bff00;stroke-width:0.625;stroke-linejoin:round"
         id="path4213-8" />
    </marker>
    <marker
       style="overflow:visible"
       id="Arrow2LendF-8"
       refX="0"
       refY="0"
       orient="auto"
       inkscape:stockid="Arrow2LendF">
      <path
         inkscape:connector-curvature="0"
         transform="matrix(-1.1,0,0,-1.1,-1.1,0)"
         d="M 8.7185878,4.0337352 -2.2072895,0.01601326 8.7185884,-4.0017078 c -1.7454984,2.3720609 -1.7354408,5.6174519 -6e-7,8.035443 z"
         style="fill:#2bff00;fill-rule:evenodd;stroke:#2bff00;stroke-width:0.625;stroke-linejoin:round"
         id="path4213-2" />
    </marker>
    <marker
       style="overflow:visible"
       id="Arrow2LendF-20"
       refX="0"
       refY="0"
       orient="auto"
       inkscape:stockid="Arrow2LendF">
      <path
         inkscape:connector-curvature="0"
         transform="matrix(-1.1,0,0,-1.1,-1.1,0)"
         d="M 8.7185878,4.0337352 -2.2072895,0.01601326 8.7185884,-4.0017078 c -1.7454984,2.3720609 -1.7354408,5.6174519 -6e-7,8.035443 z"
         style="fill:#2bff00;fill-rule:evenodd;stroke:#2bff00;stroke-width:0.625;stroke-linejoin:round"
         id="path4213-6" />
    </marker>
    <marker
       style="overflow:visible"
       id="Arrow2LendF-1"
       refX="0"
       refY="0"
       orient="auto"
       inkscape:stockid="Arrow2LendF">
      <path
         inkscape:connector-curvature="0"
         transform="matrix(-1.1,0,0,-1.1,-1.1,0)"
         d="M 8.7185878,4.0337352 -2.2072895,0.01601326 8.7185884,-4.0017078 c -1.7454984,2.3720609 -1.7354408,5.6174519 -6e-7,8.035443 z"
         style="fill:#2bff00;fill-rule:evenodd;stroke:#2bff00;stroke-width:0.625;stroke-linejoin:round"
         id="path4213-1" />
    </marker>
    <marker
       style="overflow:visible"
       id="Arrow2LendF-0"
       refX="0"
       refY="0"
       orient="auto"
       inkscape:stockid="Arrow2LendF">
      <path
         inkscape:connector-curvature="0"
         transform="matrix(-1.1,0,0,-1.1,-1.1,0)"
         d="M 8.7185878,4.0337352 -2.2072895,0.01601326 8.7185884,-4.0017078 c -1.7454984,2.3720609 -1.7354408,5.6174519 -6e-7,8.035443 z"
         style="fill:#2bff00;fill-rule:evenodd;stroke:#2bff00;stroke-width:0.625;stroke-linejoin:round"
         id="path4213-24" />
    </marker>
    <marker
       style="overflow:visible"
       id="Arrow2LendF-9"
       refX="0"
       refY="0"
       orient="auto"
       inkscape:stockid="Arrow2LendF">
      <path
         inkscape:connector-curvature="0"
         transform="matrix(-1.1,0,0,-1.1,-1.1,0)"
         d="M 8.7185878,4.0337352 -2.2072895,0.01601326 8.7185884,-4.0017078 c -1.7454984,2.3720609 -1.7354408,5.6174519 -6e-7,8.035443 z"
         style="fill:#2bff00;fill-rule:evenodd;stroke:#2bff00;stroke-width:0.625;stroke-linejoin:round"
         id="path4213-81" />
    </marker>
    <marker
       style="overflow:visible"
       id="Arrow2LendF-97"
       refX="0"
       refY="0"
       orient="auto"
       inkscape:stockid="Arrow2LendF">
      <path
         inkscape:connector-curvature="0"
         transform="matrix(-1.1,0,0,-1.1,-1.1,0)"
         d="M 8.7185878,4.0337352 -2.2072895,0.01601326 8.7185884,-4.0017078 c -1.7454984,2.3720609 -1.7354408,5.6174519 -6e-7,8.035443 z"
         style="fill:#2bff00;fill-rule:evenodd;stroke:#2bff00;stroke-width:0.625;stroke-linejoin:round"
         id="path4213-4" />
    </marker>
    <marker
       style="overflow:visible"
       id="Arrow2LendF-4"
       refX="0"
       refY="0"
       orient="auto"
       inkscape:stockid="Arrow2LendF">
      <path
         inkscape:connector-curvature="0"
         transform="matrix(-1.1,0,0,-1.1,-1.1,0)"
         d="M 8.7185878,4.0337352 -2.2072895,0.01601326 8.7185884,-4.0017078 c -1.7454984,2.3720609 -1.7354408,5.6174519 -6e-7,8.035443 z"
         style="fill:#2bff00;fill-rule:evenodd;stroke:#2bff00;stroke-width:0.625;stroke-linejoin:round"
         id="path4213-249" />
    </marker>
    <marker
       style="overflow:visible"
       id="Arrow2LendFV"
       refX="0"
       refY="0"
       orient="auto"
       inkscape:stockid="Arrow2LendFV">
      <path
         transform="matrix(-1.1,0,0,-1.1,-1.1,0)"
         d="M 8.7185878,4.0337352 -2.2072895,0.01601326 8.7185884,-4.0017078 c -1.7454984,2.3720609 -1.7354408,5.6174519 -6e-7,8.035443 z"
         style="fill:#15a100;fill-rule:evenodd;stroke:#15a100;stroke-width:0.625;stroke-linejoin:round"
         id="path4461"
         inkscape:connector-curvature="0" />
    </marker>
    <marker
       style="overflow:visible"
       id="Arrow2LendFR"
       refX="0"
       refY="0"
       orient="auto"
       inkscape:stockid="Arrow2LendFR">
      <path
         transform="matrix(-1.1,0,0,-1.1,-1.1,0)"
         d="M 8.7185878,4.0337352 -2.2072895,0.01601326 8.7185884,-4.0017078 c -1.7454984,2.3720609 -1.7354408,5.6174519 -6e-7,8.035443 z"
         style="fill:#15a100;fill-rule:evenodd;stroke:#15a100;stroke-width:0.625;stroke-linejoin:round"
         id="path4464"
         inkscape:connector-curvature="0" />
    </marker>
    <marker
       style="overflow:visible"
       id="Arrow2LendFI"
       refX="0"
       refY="0"
       orient="auto"
       inkscape:stockid="Arrow2LendFI">
      <path
         transform="matrix(-1.1,0,0,-1.1,-1.1,0)"
         d="M 8.7185878,4.0337352 -2.2072895,0.01601326 8.7185884,-4.0017078 c -1.7454984,2.3720609 -1.7354408,5.6174519 -6e-7,8.035443 z"
         style="fill:#15a100;fill-rule:evenodd;stroke:#15a100;stroke-width:0.625;stroke-linejoin:round"
         id="path4467"
         inkscape:connector-curvature="0" />
    </marker>
    <marker
       style="overflow:visible"
       id="Arrow2LendFv"
       refX="0"
       refY="0"
       orient="auto"
       inkscape:stockid="Arrow2LendFv">
      <path
         transform="matrix(-1.1,0,0,-1.1,-1.1,0)"
         d="M 8.7185878,4.0337352 -2.2072895,0.01601326 8.7185884,-4.0017078 c -1.7454984,2.3720609 -1.7354408,5.6174519 -6e-7,8.035443 z"
         style="fill:#15a100;fill-rule:evenodd;stroke:#15a100;stroke-width:0.625;stroke-linejoin:round"
         id="path4470"
         inkscape:connector-curvature="0" />
    </marker>
    <marker
       style="overflow:visible"
       id="Arrow2LendFl"
       refX="0"
       refY="0"
       orient="auto"
       inkscape:stockid="Arrow2LendFl">
      <path
         transform="matrix(-1.1,0,0,-1.1,-1.1,0)"
         d="M 8.7185878,4.0337352 -2.2072895,0.01601326 8.7185884,-4.0017078 c -1.7454984,2.3720609 -1.7354408,5.6174519 -6e-7,8.035443 z"
         style="fill:#15a100;fill-rule:evenodd;stroke:#15a100;stroke-width:0.625;stroke-linejoin:round"
         id="path4473"
         inkscape:connector-curvature="0" />
    </marker>
    <marker
       style="overflow:visible"
       id="Arrow2LendFd"
       refX="0"
       refY="0"
       orient="auto"
       inkscape:stockid="Arrow2LendFd">
      <path
         transform="matrix(-1.1,0,0,-1.1,-1.1,0)"
         d="M 8.7185878,4.0337352 -2.2072895,0.01601326 8.7185884,-4.0017078 c -1.7454984,2.3720609 -1.7354408,5.6174519 -6e-7,8.035443 z"
         style="fill:#15a100;fill-rule:evenodd;stroke:#15a100;stroke-width:0.625;stroke-linejoin:round"
         id="path4476"
         inkscape:connector-curvature="0" />
    </marker>
    <marker
       style="overflow:visible"
       id="Arrow2LendFlc"
       refX="0"
       refY="0"
       orient="auto"
       inkscape:stockid="Arrow2LendFlc">
      <path
         transform="matrix(-1.1,0,0,-1.1,-1.1,0)"
         d="M 8.7185878,4.0337352 -2.2072895,0.01601326 8.7185884,-4.0017078 c -1.7454984,2.3720609 -1.7354408,5.6174519 -6e-7,8.035443 z"
         style="fill:#15a100;fill-rule:evenodd;stroke:#15a100;stroke-width:0.625;stroke-linejoin:round"
         id="path4479"
         inkscape:connector-curvature="0" />
    </marker>
    <marker
       style="overflow:visible"
       id="Arrow2LendFK"
       refX="0"
       refY="0"
       orient="auto"
       inkscape:stockid="Arrow2LendFK">
      <path
         transform="matrix(-1.1,0,0,-1.1,-1.1,0)"
         d="M 8.7185878,4.0337352 -2.2072895,0.01601326 8.7185884,-4.0017078 c -1.7454984,2.3720609 -1.7354408,5.6174519 -6e-7,8.035443 z"
         style="fill:#15a100;fill-rule:evenodd;stroke:#15a100;stroke-width:0.625;stroke-linejoin:round"
         id="path4482"
         inkscape:connector-curvature="0" />
    </marker>
    <marker
       style="overflow:visible"
       id="Arrow2LendFA"
       refX="0"
       refY="0"
       orient="auto"
       inkscape:stockid="Arrow2LendFA">
      <path
         transform="matrix(-1.1,0,0,-1.1,-1.1,0)"
         d="M 8.7185878,4.0337352 -2.2072895,0.01601326 8.7185884,-4.0017078 c -1.7454984,2.3720609 -1.7354408,5.6174519 -6e-7,8.035443 z"
         style="fill:#15a100;fill-rule:evenodd;stroke:#15a100;stroke-width:0.625;stroke-linejoin:round"
         id="path4485"
         inkscape:connector-curvature="0" />
    </marker>
    <marker
       inkscape:stockid="Arrow2Lstart"
       orient="auto"
       refY="0"
       refX="0"
       id="Arrow2Lstart"
       style="overflow:visible">
      <path
         id="path3785"
         style="fill-rule:evenodd;stroke-width:0.625;stroke-linejoin:round"
         d="M 8.7185878,4.0337352 -2.2072895,0.01601326 8.7185884,-4.0017078 c -1.7454984,2.3720609 -1.7354408,5.6174519 -6e-7,8.035443 z"
         transform="matrix(1.1,0,0,1.1,1.1,0)"
         inkscape:connector-curvature="0" />
    </marker>
    <marker
       inkscape:stockid="Arrow2Lend"
       orient="auto"
       refY="0"
       refX="0"
       id="Arrow2Lend-1"
       style="overflow:visible">
      <path
         inkscape:connector-curvature="0"
         id="path3788-7"
         style="fill-rule:evenodd;stroke-width:0.625;stroke-linejoin:round"
         d="M 8.7185878,4.0337352 -2.2072895,0.01601326 8.7185884,-4.0017078 c -1.7454984,2.3720609 -1.7354408,5.6174519 -6e-7,8.035443 z"
         transform="matrix(-1.1,0,0,-1.1,-1.1,0)" />
    </marker>
    <marker
       style="overflow:visible"
       id="Arrow2Lend-6"
       refX="0"
       refY="0"
       orient="auto"
       inkscape:stockid="Arrow2Lend">
      <path
         transform="matrix(-1.1,0,0,-1.1,-1.1,0)"
         d="M 8.7185878,4.0337352 -2.2072895,0.01601326 8.7185884,-4.0017078 c -1.7454984,2.3720609 -1.7354408,5.6174519 -6e-7,8.035443 z"
         style="fill-rule:evenodd;stroke-width:0.625;stroke-linejoin:round"
         id="path3788-71"
         inkscape:connector-curvature="0" />
    </marker>
    <inkscape:path-effect
       nr_y="9"
       nr_x="8"
       is_visible="true"
       id="path-effect2989-4"
       effect="construct_grid" />
    <inkscape:path-effect
       nr_y="8"
       nr_x="8"
       is_visible="true"
       id="path-effect2989-7"
       effect="construct_grid" />
    <marker
       style="overflow:visible"
       id="Arrow2LendFV-8"
       refX="0"
       refY="0"
       orient="auto"
       inkscape:stockid="Arrow2LendFV">
      <path
         transform="matrix(-1.1,0,0,-1.1,-1.1,0)"
         d="M 8.7185878,4.0337352 -2.2072895,0.01601326 8.7185884,-4.0017078 c -1.7454984,2.3720609 -1.7354408,5.6174519 -6e-7,8.035443 z"
         style="fill:#15a100;fill-rule:evenodd;stroke:#15a100;stroke-width:0.625;stroke-linejoin:round"
         id="path4461-7"
         inkscape:connector-curvature="0" />
    </marker>
    <marker
       style="overflow:visible"
       id="Arrow2LendFV-1"
       refX="0"
       refY="0"
       orient="auto"
       inkscape:stockid="Arrow2LendFV">
      <path
         transform="matrix(-1.1,0,0,-1.1,-1.1,0)"
         d="M 8.7185878,4.0337352 -2.2072895,0.01601326 8.7185884,-4.0017078 c -1.7454984,2.3720609 -1.7354408,5.6174519 -6e-7,8.035443 z"
         style="fill:#15a100;fill-rule:evenodd;stroke:#15a100;stroke-width:0.625;stroke-linejoin:round"
         id="path4461-3"
         inkscape:connector-curvature="0" />
    </marker>
    <marker
       style="overflow:visible"
       id="Arrow2LendFV-6"
       refX="0"
       refY="0"
       orient="auto"
       inkscape:stockid="Arrow2LendFV">
      <path
         transform="matrix(-1.1,0,0,-1.1,-1.1,0)"
         d="M 8.7185878,4.0337352 -2.2072895,0.01601326 8.7185884,-4.0017078 c -1.7454984,2.3720609 -1.7354408,5.6174519 -6e-7,8.035443 z"
         style="fill:#15a100;fill-rule:evenodd;stroke:#15a100;stroke-width:0.625;stroke-linejoin:round"
         id="path4461-1"
         inkscape:connector-curvature="0" />
    </marker>
    <marker
       style="overflow:visible"
       id="Arrow2LendFV-62"
       refX="0"
       refY="0"
       orient="auto"
       inkscape:stockid="Arrow2LendFV">
      <path
         transform="matrix(-1.1,0,0,-1.1,-1.1,0)"
         d="M 8.7185878,4.0337352 -2.2072895,0.01601326 8.7185884,-4.0017078 c -1.7454984,2.3720609 -1.7354408,5.6174519 -6e-7,8.035443 z"
         style="fill:#15a100;fill-rule:evenodd;stroke:#15a100;stroke-width:0.625;stroke-linejoin:round"
         id="path4461-2"
         inkscape:connector-curvature="0" />
    </marker>
    <marker
       style="overflow:visible"
       id="Arrow2LendFV-2"
       refX="0"
       refY="0"
       orient="auto"
       inkscape:stockid="Arrow2LendFV">
      <path
         transform="matrix(-1.1,0,0,-1.1,-1.1,0)"
         d="M 8.7185878,4.0337352 -2.2072895,0.01601326 8.7185884,-4.0017078 c -1.7454984,2.3720609 -1.7354408,5.6174519 -6e-7,8.035443 z"
         style="fill:#15a100;fill-rule:evenodd;stroke:#15a100;stroke-width:0.625;stroke-linejoin:round"
         id="path4461-9"
         inkscape:connector-curvature="0" />
    </marker>
    <marker
       style="overflow:visible"
       id="Arrow2LendFV-80"
       refX="0"
       refY="0"
       orient="auto"
       inkscape:stockid="Arrow2LendFV">
      <path
         transform="matrix(-1.1,0,0,-1.1,-1.1,0)"
         d="M 8.7185878,4.0337352 -2.2072895,0.01601326 8.7185884,-4.0017078 c -1.7454984,2.3720609 -1.7354408,5.6174519 -6e-7,8.035443 z"
         style="fill:#15a100;fill-rule:evenodd;stroke:#15a100;stroke-width:0.625;stroke-linejoin:round"
         id="path4461-0"
         inkscape:connector-curvature="0" />
    </marker>
    <marker
       style="overflow:visible"
       id="Arrow2LendFV-3"
       refX="0"
       refY="0"
       orient="auto"
       inkscape:stockid="Arrow2LendFV">
      <path
         transform="matrix(-1.1,0,0,-1.1,-1.1,0)"
         d="M 8.7185878,4.0337352 -2.2072895,0.01601326 8.7185884,-4.0017078 c -1.7454984,2.3720609 -1.7354408,5.6174519 -6e-7,8.035443 z"
         style="fill:#15a100;fill-rule:evenodd;stroke:#15a100;stroke-width:0.625;stroke-linejoin:round"
         id="path4461-76"
         inkscape:connector-curvature="0" />
    </marker>
    <marker
       style="overflow:visible"
       id="Arrow2LendFV-82"
       refX="0"
       refY="0"
       orient="auto"
       inkscape:stockid="Arrow2LendFV">
      <path
         transform="matrix(-1.1,0,0,-1.1,-1.1,0)"
         d="M 8.7185878,4.0337352 -2.2072895,0.01601326 8.7185884,-4.0017078 c -1.7454984,2.3720609 -1.7354408,5.6174519 -6e-7,8.035443 z"
         style="fill:#15a100;fill-rule:evenodd;stroke:#15a100;stroke-width:0.625;stroke-linejoin:round"
         id="path4461-72"
         inkscape:connector-curvature="0" />
    </marker>
    <marker
       style="overflow:visible"
       id="Arrow2LendFV-0"
       refX="0"
       refY="0"
       orient="auto"
       inkscape:stockid="Arrow2LendFV">
      <path
         transform="matrix(-1.1,0,0,-1.1,-1.1,0)"
         d="M 8.7185878,4.0337352 -2.2072895,0.01601326 8.7185884,-4.0017078 c -1.7454984,2.3720609 -1.7354408,5.6174519 -6e-7,8.035443 z"
         style="fill:#15a100;fill-rule:evenodd;stroke:#15a100;stroke-width:0.625;stroke-linejoin:round"
         id="path4461-77"
         inkscape:connector-curvature="0" />
    </marker>
  </defs>
  <metadata
     id="metadata7">
    <rdf:RDF>
      <cc:Work
         rdf:about="">
        <dc:format>image/svg+xml</dc:format>
        <dc:type
           rdf:resource="http://purl.org/dc/dcmitype/StillImage" />
        <dc:title></dc:title>
      </cc:Work>
    </rdf:RDF>
  </metadata>
  <g
     id="layer1"
     inkscape:groupmode="layer"
     inkscape:label="Layer 1"
     transform="translate(-159.59245,-352.47306)">
    <rect
       y="698.03149"
       x="212.59842"
       height="28.346457"
       width="28.346457"
       id="rect2991"
       style="fill:#ff0000;fill-opacity:1;stroke:none" />
    <path
       inkscape:original-d="m 212.59843,499.60628 0,-28.34646 28.34645,0"
       inkscape:path-effect="#path-effect2989"
       inkscape:connector-curvature="0"
       id="path2987"
       d="m 212.59843,471.25982 0,255.11814 m 28.34645,-255.11814 0,255.11814 m 28.34645,-255.11814 0,255.11814 m 28.34645,-255.11814 0,255.11814 m 28.34645,-255.11814 0,255.11814 m 28.34645,-255.11814 0,255.11814 m 28.34645,-255.11814 0,255.11814 m 28.34645,-255.11814 0,255.11814 m 28.34645,-255.11814 0,255.11814 m -226.7716,-255.11814 226.7716,0 m -226.7716,28.34646 226.7716,0 m -226.7716,28.34646 226.7716,0 m -226.7716,28.34646 226.7716,0 m -226.7716,28.34646 226.7716,0 m -226.7716,28.34646 226.7716,0 m -226.7716,28.34646 226.7716,0 m -226.7716,28.34646 226.7716,0 m -226.7716,28.34646 226.7716,0 m -226.7716,28.34646 226.7716,0"
       style="fill:none;stroke:#bebebe;stroke-width:1px;stroke-linecap:butt;stroke-linejoin:miter;stroke-opacity:1" />
    <path
       sodipodi:nodetypes="ccc"
       style="fill:none;stroke:#000000;stroke-width:1px;stroke-linecap:butt;stroke-linejoin:miter;stroke-opacity:1;marker-start:url(#Arrow2Lstart);marker-end:url(#Arrow2Lend)"
       d="m 184.25197,712.2047 42.51969,0 283.46457,0"
       id="path4589"
       inkscape:connector-curvature="0"
       inkscape:export-filename="/home/eugen/Development/nexus/src/definitions/manual/source/img/detector_axes.png"
       inkscape:export-xdpi="130"
       inkscape:export-ydpi="130" />
    <path
       sodipodi:nodetypes="cc"
       style="fill:none;stroke:#15a100;stroke-width:1px;stroke-linecap:butt;stroke-linejoin:miter;stroke-opacity:1"
       d="M 439.37008,683.85824 552.75591,598.81887"
       id="path4335"
       inkscape:connector-curvature="0" />
    <g
       style="font-style:normal;font-variant:normal;font-weight:normal;font-stretch:normal;letter-spacing:normal;word-spacing:normal;text-anchor:start;fill:none;stroke:#000000;stroke-linecap:butt;stroke-linejoin:miter;stroke-miterlimit:10.43299961;stroke-opacity:1;stroke-dasharray:none;stroke-dashoffset:0"
       id="content"
       transform="matrix(3.2791369,0,0,-3.2791369,-575.65153,2857.6018)"
       xml:space="preserve"
       stroke-miterlimit="10.433"
       font-style="normal"
       font-variant="normal"
       font-weight="normal"
       font-stretch="normal"
       font-size-adjust="none"
       letter-spacing="normal"
       word-spacing="normal"
       ns0:text="$-x$"
       ns0:preamble=""
       inkscape:export-filename="/home/eugen/Development/nexus/src/definitions/manual/source/img/detector_axes.png"
       inkscape:export-xdpi="130"
       inkscape:export-ydpi="130"><path
         style="fill:#000000;stroke-width:0"
         inkscape:connector-curvature="0"
         d="m 229.99,659.52 0.03,0 0.03,0 0.03,0 0.02,0 0.01,0 0.02,0 0.01,0.01 0.02,0 0.01,0 0.02,0 0.01,0.01 0.01,0 0.02,0 0.01,0.01 0.01,0.01 0.01,0 0.01,0.01 0.01,0.01 0.01,0 0.01,0.01 0.01,0.01 0,0.01 0,0 0.01,0.01 0,0.01 0,0 0,0.01 0.01,0.01 0,0 0,0.01 0,0.01 0,0.01 0,0 0.01,0.01 0,0.01 0,0.01 0,0.01 c 0,0.2 -0.18,0.2 -0.35,0.2 h -5.38 c -0.17,0 -0.35,0 -0.35,-0.2 0,-0.2 0.18,-0.2 0.35,-0.2 z"
         id="path5526" /><path
         style="fill:#000000;stroke-width:0"
         inkscape:connector-curvature="0"
         d="m 234.5,660.23 0.01,0.03 0.01,0.03 0.01,0.03 0.01,0.04 0.01,0.04 0.01,0.04 0.01,0.04 0.02,0.05 0.01,0.04 0.02,0.05 0.02,0.05 0.02,0.05 0.02,0.05 0.02,0.05 0.03,0.05 0.03,0.05 0.03,0.05 0.03,0.04 0.03,0.05 0.04,0.04 0.03,0.05 0.04,0.04 0.05,0.04 0.04,0.03 0.05,0.03 0.04,0.03 0.03,0.01 0.03,0.02 0.02,0.01 0.03,0.01 0.03,0.01 0.03,0 0.02,0.01 0.03,0.01 0.03,0 0.04,0 0.03,0.01 0.03,0 c 0.05,0 0.29,0 0.5,-0.13 -0.28,-0.05 -0.48,-0.3 -0.48,-0.54 0,-0.16 0.11,-0.35 0.38,-0.35 0.22,0 0.53,0.18 0.53,0.58 0,0.52 -0.58,0.66 -0.92,0.66 -0.58,0 -0.93,-0.53 -1.05,-0.76 -0.24,0.66 -0.78,0.76 -1.07,0.76 -1.03,0 -1.6,-1.29 -1.6,-1.53 0,-0.1 0.1,-0.1 0.12,-0.1 0.08,0 0.11,0.02 0.13,0.11 0.34,1.05 0.99,1.3 1.33,1.3 0.19,0 0.54,-0.09 0.54,-0.67 0,-0.31 -0.17,-0.97 -0.54,-2.36 -0.16,-0.62 -0.51,-1.04 -0.95,-1.04 -0.06,0 -0.28,0 -0.49,0.13 0.25,0.05 0.46,0.26 0.46,0.54 0,0.27 -0.21,0.35 -0.36,0.35 -0.3,0 -0.55,-0.26 -0.55,-0.58 0,-0.46 0.5,-0.65 0.93,-0.65 0.66,0 1.02,0.69 1.05,0.75 0.12,-0.37 0.48,-0.75 1.07,-0.75 1.03,0 1.6,1.28 1.6,1.53 0,0.1 -0.09,0.1 -0.12,0.1 -0.09,0 -0.11,-0.04 -0.13,-0.11 -0.33,-1.07 -1.01,-1.31 -1.33,-1.31 -0.38,0 -0.54,0.32 -0.54,0.66 0,0.22 0.06,0.44 0.17,0.87 z"
         id="path5528" /></g>    <g
       style="font-style:normal;font-variant:normal;font-weight:normal;font-stretch:normal;letter-spacing:normal;word-spacing:normal;text-anchor:start;fill:none;stroke:#000000;stroke-linecap:butt;stroke-linejoin:miter;stroke-miterlimit:10.43299961;stroke-opacity:1;stroke-dasharray:none;stroke-dashoffset:0"
       ns0:preamble=""
       ns0:text="$+x$"
       word-spacing="normal"
       letter-spacing="normal"
       font-size-adjust="none"
       font-stretch="normal"
       font-weight="normal"
       font-variant="normal"
       font-style="normal"
       stroke-miterlimit="10.433"
       xml:space="preserve"
       transform="matrix(3.2791369,0,0,-3.2791369,-290.61114,3058.5019)"
       id="g3148">
<path
   id="path3150"
   d="m 227.5,709.41 h 2.78 c 0.14,0 0.32,0 0.32,0.2 0,0.2 -0.18,0.2 -0.32,0.2 h -2.78 v 2.78 c 0,0.14 0,0.33 -0.2,0.33 -0.2,0 -0.2,-0.19 -0.2,-0.33 v -2.78 h -2.78 c -0.14,0 -0.33,0 -0.33,-0.2 0,-0.2 0.19,-0.2 0.33,-0.2 h 2.78 v -2.78 c 0,-0.14 0,-0.33 0.2,-0.33 0.2,0 0.2,0.19 0.2,0.33 z"
   inkscape:connector-curvature="0"
   style="fill:#000000;stroke-width:0" />
<path
   id="path3152"
   d="m 234.5,710.12 0.01,0.03 0.01,0.03 0.01,0.03 0.01,0.04 0.01,0.04 0.01,0.04 0.01,0.04 0.02,0.05 0.01,0.04 0.02,0.05 0.02,0.05 0.02,0.05 0.02,0.05 0.02,0.05 0.03,0.05 0.03,0.05 0.03,0.05 0.03,0.04 0.03,0.05 0.04,0.04 0.03,0.05 0.04,0.04 0.05,0.04 0.04,0.03 0.05,0.03 0.04,0.03 0.03,0.01 0.03,0.02 0.02,0.01 0.03,0.01 0.03,0.01 0.03,0 0.02,0.01 0.03,0.01 0.03,0 0.04,0 0.03,0.01 0.03,0 c 0.05,0 0.29,0 0.5,-0.13 -0.28,-0.05 -0.48,-0.3 -0.48,-0.54 0,-0.16 0.11,-0.35 0.38,-0.35 0.22,0 0.53,0.18 0.53,0.58 0,0.52 -0.58,0.66 -0.92,0.66 -0.58,0 -0.93,-0.53 -1.05,-0.76 -0.24,0.66 -0.78,0.76 -1.07,0.76 -1.03,0 -1.6,-1.29 -1.6,-1.53 0,-0.1 0.1,-0.1 0.12,-0.1 0.08,0 0.11,0.02 0.13,0.11 0.34,1.05 0.99,1.3 1.33,1.3 0.19,0 0.54,-0.09 0.54,-0.67 0,-0.31 -0.17,-0.97 -0.54,-2.36 -0.16,-0.62 -0.51,-1.04 -0.95,-1.04 -0.06,0 -0.28,0 -0.49,0.13 0.25,0.05 0.46,0.26 0.46,0.54 0,0.27 -0.21,0.35 -0.36,0.35 -0.3,0 -0.55,-0.26 -0.55,-0.58 0,-0.46 0.5,-0.65 0.93,-0.65 0.66,0 1.02,0.69 1.05,0.75 0.12,-0.37 0.48,-0.75 1.07,-0.75 1.03,0 1.6,1.28 1.6,1.53 0,0.1 -0.09,0.1 -0.12,0.1 -0.09,0 -0.11,-0.05 -0.13,-0.11 -0.33,-1.07 -1.01,-1.31 -1.33,-1.31 -0.38,0 -0.54,0.32 -0.54,0.66 0,0.22 0.06,0.44 0.17,0.87 z"
   inkscape:connector-curvature="0"
   style="fill:#000000;stroke-width:0" />
</g>    <path
       sodipodi:nodetypes="cc"
       inkscape:export-ydpi="130"
       inkscape:export-xdpi="130"
       inkscape:export-filename="/home/eugen/Development/nexus/src/definitions/manual/source/img/detector_axes.png"
       inkscape:connector-curvature="0"
       id="path4591"
       d="m 226.77166,726.37792 0,-354.3307"
       style="fill:none;stroke:#000000;stroke-width:1px;stroke-linecap:butt;stroke-linejoin:miter;stroke-opacity:1;marker-end:url(#Arrow2Lend)" />
    <g
       id="g3325"
       transform="matrix(3.2791369,0,0,-3.2791369,-507.17916,2690.3952)"
       xml:space="preserve"
       stroke-miterlimit="10.433"
       font-style="normal"
       font-variant="normal"
       font-weight="normal"
       font-stretch="normal"
       font-size-adjust="none"
       letter-spacing="normal"
       word-spacing="normal"
       ns0:text="$+y$"
       ns0:preamble=""
       style="font-style:normal;font-variant:normal;font-weight:normal;font-stretch:normal;letter-spacing:normal;word-spacing:normal;text-anchor:start;fill:none;stroke:#000000;stroke-linecap:butt;stroke-linejoin:miter;stroke-miterlimit:10.43299961;stroke-opacity:1;stroke-dasharray:none;stroke-dashoffset:0">
<path
   style="fill:#000000;stroke-width:0"
   inkscape:connector-curvature="0"
   d="m 227.5,709.41 h 2.78 c 0.14,0 0.32,0 0.32,0.2 0,0.2 -0.18,0.2 -0.32,0.2 h -2.78 v 2.78 c 0,0.14 0,0.33 -0.2,0.33 -0.2,0 -0.2,-0.19 -0.2,-0.33 v -2.78 h -2.78 c -0.14,0 -0.33,0 -0.33,-0.2 0,-0.2 0.19,-0.2 0.33,-0.2 h 2.78 v -2.78 c 0,-0.14 0,-0.33 0.2,-0.33 0.2,0 0.2,0.19 0.2,0.33 z"
   id="path3327" />
<path
   style="fill:#000000;stroke-width:0"
   inkscape:connector-curvature="0"
   d="m 236.02,710.91 0,0.01 0,0 0,0.01 0,0 0.01,0.02 0,0.01 0,0.01 0,0.01 0.01,0.01 0,0 0,0.01 0,0.01 0,0.01 0.01,0.01 0,0 0,0.01 0,0 0,0.01 0,0.01 0,0 0,0.01 0,0 0,0.01 0.01,0.01 0,0.01 0,0.01 0,0.01 0,0.01 0,0 0,0.01 c 0,0.18 -0.14,0.27 -0.29,0.27 -0.1,0 -0.26,-0.06 -0.35,-0.21 -0.02,-0.05 -0.1,-0.36 -0.14,-0.54 -0.07,-0.26 -0.14,-0.52 -0.2,-0.79 l -0.45,-1.79 c -0.04,-0.15 -0.46,-0.85 -1.12,-0.85 -0.51,0 -0.62,0.44 -0.62,0.81 0,0.46 0.17,1.07 0.51,1.95 0.16,0.4 0.2,0.51 0.2,0.71 0,0.45 -0.32,0.82 -0.82,0.82 -0.94,0 -1.31,-1.44 -1.31,-1.53 0,-0.1 0.1,-0.1 0.12,-0.1 0.1,0 0.11,0.02 0.16,0.18 0.27,0.93 0.66,1.23 1,1.23 0.08,0 0.25,0 0.25,-0.32 0,-0.25 -0.1,-0.51 -0.17,-0.7 -0.4,-1.05 -0.57,-1.62 -0.57,-2.08 0,-0.89 0.62,-1.18 1.21,-1.18 0.39,0 0.73,0.16 1,0.44 -0.12,-0.51 -0.24,-1 -0.64,-1.53 -0.26,-0.34 -0.64,-0.62 -1.1,-0.62 -0.14,0 -0.58,0.03 -0.75,0.41 0.16,0 0.28,0 0.42,0.12 0.1,0.09 0.2,0.22 0.2,0.41 0,0.31 -0.26,0.35 -0.36,0.35 -0.23,0 -0.56,-0.16 -0.56,-0.65 0,-0.49 0.44,-0.86 1.05,-0.86 1.03,0 2.05,0.9 2.33,2.02 z"
   id="path3329" />
</g>    <path
       sodipodi:nodetypes="cc"
       inkscape:connector-curvature="0"
       id="path3761"
       d="M 439.37008,712.2047 552.75591,598.81887"
       style="fill:none;stroke:#15a100;stroke-width:1;stroke-linecap:butt;stroke-linejoin:miter;stroke-miterlimit:4;stroke-opacity:1;stroke-dasharray:none;marker-end:url(#Arrow2LendFV)" />
    <path
       sodipodi:nodetypes="ccc"
       inkscape:original-d="m 439.37008,499.6063 0,-28.34646 14.17323,-14.17325"
       inkscape:path-effect="#path-effect2989-4"
       inkscape:connector-curvature="0"
       id="path2987-3"
       d="m 439.37008,471.25984 0,255.11814 m 14.17323,-269.29139 0,255.11814 m 14.17323,-269.29139 0,255.11814 m 14.17323,-269.29139 0,255.11814 m 14.17323,-269.29139 0,255.11814 m 14.17323,-269.29139 0,255.11814 m 14.17323,-269.29139 0,255.11814 m 14.17323,-269.29139 0,255.11814 m 14.17323,-269.29139 0,255.11814 M 439.37008,471.25984 552.75592,357.87384 M 439.37008,499.6063 552.75592,386.2203 M 439.37008,527.95276 552.75592,414.56676 M 439.37008,556.29922 552.75592,442.91322 M 439.37008,584.64568 552.75592,471.25968 M 439.37008,612.99214 552.75592,499.60614 M 439.37008,641.3386 552.75592,527.9526 m -113.38584,141.73246 113.38584,-113.386 m -113.38584,141.73246 113.38584,-113.386 m -113.38584,141.73246 113.38584,-113.386"
       style="fill:none;stroke:#bebebe;stroke-width:1px;stroke-linecap:butt;stroke-linejoin:miter;stroke-opacity:1" />
    <path
       sodipodi:nodetypes="ccc"
       inkscape:original-d="m 311.81101,372.04721 14.17322,-14.17323 28.34647,0"
       inkscape:path-effect="#path-effect2989-7"
       inkscape:connector-curvature="0"
       id="path2987-6"
       d="M 325.98423,357.87398 212.59847,471.25982 M 354.3307,357.87398 240.94494,471.25982 M 382.67717,357.87398 269.29141,471.25982 M 411.02364,357.87398 297.63788,471.25982 M 439.37011,357.87398 325.98435,471.25982 M 467.71658,357.87398 354.33082,471.25982 M 496.06305,357.87398 382.67729,471.25982 M 524.40952,357.87398 411.02376,471.25982 M 552.75599,357.87398 439.37023,471.25982 m -113.386,-113.38584 226.77176,0 m -240.94498,14.17323 226.77176,0 m -240.94498,14.17323 226.77176,0 m -240.94498,14.17323 226.77176,0 m -240.94498,14.17323 226.77176,0 m -240.94498,14.17323 226.77176,0 m -240.94498,14.17323 226.77176,0 m -240.94498,14.17323 226.77176,0 m -240.94498,14.17323 226.77176,0"
       style="fill:none;stroke:#bebebe;stroke-width:1px;stroke-linecap:butt;stroke-linejoin:miter;stroke-opacity:1" />
    <path
       sodipodi:nodetypes="cc"
       inkscape:connector-curvature="0"
       id="path3761-1"
       d="M 439.37008,683.85824 552.75591,570.47241"
       style="fill:none;stroke:#15a100;stroke-width:1;stroke-linecap:butt;stroke-linejoin:miter;stroke-miterlimit:4;stroke-opacity:1;stroke-dasharray:none;marker-end:url(#Arrow2LendFV)" />
    <path
       sodipodi:nodetypes="cc"
       inkscape:connector-curvature="0"
       id="path3761-0"
       d="M 439.37008,655.51179 552.75591,542.12596"
       style="fill:none;stroke:#15a100;stroke-width:1;stroke-linecap:butt;stroke-linejoin:miter;stroke-miterlimit:4;stroke-opacity:1;stroke-dasharray:none;marker-end:url(#Arrow2LendFV)" />
    <path
       sodipodi:nodetypes="cc"
       inkscape:connector-curvature="0"
       id="path3761-3"
       d="M 439.37008,627.16533 552.75591,513.7795"
       style="fill:none;stroke:#15a100;stroke-width:1;stroke-linecap:butt;stroke-linejoin:miter;stroke-miterlimit:4;stroke-opacity:1;stroke-dasharray:none;marker-end:url(#Arrow2LendFV)" />
    <path
       sodipodi:nodetypes="cc"
       inkscape:connector-curvature="0"
       id="path3761-8"
       d="M 439.37008,598.81887 552.75591,485.43304"
       style="fill:none;stroke:#15a100;stroke-width:1;stroke-linecap:butt;stroke-linejoin:miter;stroke-miterlimit:4;stroke-opacity:1;stroke-dasharray:none;marker-end:url(#Arrow2LendFV)" />
    <path
       sodipodi:nodetypes="cc"
       inkscape:connector-curvature="0"
       id="path3761-07"
       d="M 439.37008,570.47242 552.75591,457.08659"
       style="fill:none;stroke:#15a100;stroke-width:1;stroke-linecap:butt;stroke-linejoin:miter;stroke-miterlimit:4;stroke-opacity:1;stroke-dasharray:none;marker-end:url(#Arrow2LendFV)" />
    <path
       sodipodi:nodetypes="cc"
       inkscape:connector-curvature="0"
       id="path3761-5"
       d="M 439.37008,542.12596 552.75591,428.74013"
       style="fill:none;stroke:#15a100;stroke-width:1;stroke-linecap:butt;stroke-linejoin:miter;stroke-miterlimit:4;stroke-opacity:1;stroke-dasharray:none;marker-end:url(#Arrow2LendFV)" />
    <path
       sodipodi:nodetypes="cc"
       inkscape:connector-curvature="0"
       id="path3761-2"
       d="M 439.37008,513.7795 552.75591,400.39367"
       style="fill:none;stroke:#15a100;stroke-width:1;stroke-linecap:butt;stroke-linejoin:miter;stroke-miterlimit:4;stroke-opacity:1;stroke-dasharray:none;marker-end:url(#Arrow2LendFV)" />
    <path
       sodipodi:nodetypes="cc"
       inkscape:connector-curvature="0"
       id="path3761-05"
       d="M 439.37008,485.43305 552.75591,372.04722"
       style="fill:none;stroke:#15a100;stroke-width:1;stroke-linecap:butt;stroke-linejoin:miter;stroke-miterlimit:4;stroke-opacity:1;stroke-dasharray:none;marker-end:url(#Arrow2LendFV)" />
    <path
       sodipodi:nodetypes="cc"
       style="fill:none;stroke:#15a100;stroke-width:1px;stroke-linecap:butt;stroke-linejoin:miter;stroke-opacity:1"
       d="M 439.37008,655.51178 552.75591,570.47241"
       id="path4335-9"
       inkscape:connector-curvature="0" />
    <path
       sodipodi:nodetypes="cc"
       style="fill:none;stroke:#15a100;stroke-width:1px;stroke-linecap:butt;stroke-linejoin:miter;stroke-opacity:1"
       d="M 439.37008,627.16533 552.75591,542.12596"
       id="path4335-95"
       inkscape:connector-curvature="0" />
    <path
       sodipodi:nodetypes="cc"
       style="fill:none;stroke:#15a100;stroke-width:1px;stroke-linecap:butt;stroke-linejoin:miter;stroke-opacity:1"
       d="M 439.37008,598.81887 552.75591,513.7795"
       id="path4335-3"
       inkscape:connector-curvature="0" />
    <path
       sodipodi:nodetypes="cc"
       style="fill:none;stroke:#15a100;stroke-width:1px;stroke-linecap:butt;stroke-linejoin:miter;stroke-opacity:1"
       d="M 439.37008,570.47241 552.75591,485.43304"
       id="path4335-7"
       inkscape:connector-curvature="0" />
    <path
       sodipodi:nodetypes="cc"
       style="fill:none;stroke:#15a100;stroke-width:1px;stroke-linecap:butt;stroke-linejoin:miter;stroke-opacity:1"
       d="M 439.37008,542.12596 552.75591,457.08659"
       id="path4335-77"
       inkscape:connector-curvature="0" />
    <path
       sodipodi:nodetypes="cc"
       style="fill:none;stroke:#15a100;stroke-width:1px;stroke-linecap:butt;stroke-linejoin:miter;stroke-opacity:1"
       d="M 439.37008,513.7795 552.75591,428.74013"
       id="path4335-8"
       inkscape:connector-curvature="0" />
    <path
       sodipodi:nodetypes="cc"
       style="fill:none;stroke:#15a100;stroke-width:1px;stroke-linecap:butt;stroke-linejoin:miter;stroke-opacity:1"
       d="M 439.37008,485.43304 552.75591,400.39367"
       id="path4335-96"
       inkscape:connector-curvature="0" />
    <path
       transform="translate(165.79369,433.83796)"
       inkscape:connector-curvature="0"
       id="path3302"
       d="M 60.977969,278.36674 4.2850559,335.05965"
       style="fill:none;stroke:#000000;stroke-width:1px;stroke-linecap:butt;stroke-linejoin:miter;stroke-opacity:1;marker-end:url(#Arrow2Lend-6)" />
    <g
       style="font-style:normal;font-variant:normal;font-weight:normal;font-stretch:normal;letter-spacing:normal;word-spacing:normal;text-anchor:start;fill:none;stroke:#000000;stroke-linecap:butt;stroke-linejoin:miter;stroke-miterlimit:10.43299961;stroke-opacity:1;stroke-dasharray:none;stroke-dashoffset:0"
       ns0:preamble=""
       ns0:text="$-z$"
       word-spacing="normal"
       letter-spacing="normal"
       font-size-adjust="none"
       font-stretch="normal"
       font-weight="normal"
       font-variant="normal"
       font-style="normal"
       stroke-miterlimit="10.433"
       xml:space="preserve"
       transform="matrix(3.2791369,0,0,-3.2791369,-550.22719,3088.3605)"
       id="g4628">
<path
   id="path4630"
   d="m 229.99,709.41 0.03,0 0.03,0 0.03,0 0.02,0 0.01,0 0.02,0 0.01,0.01 0.02,0 0.01,0 0.02,0 0.01,0.01 0.01,0 0.02,0 0.01,0.01 0.01,0.01 0.01,0 0.01,0.01 0.01,0.01 0.01,0 0.01,0.01 0.01,0.01 0,0.01 0,0 0.01,0.01 0,0.01 0,0 0,0.01 0.01,0.01 0,0 0,0.01 0,0.01 0,0.01 0,0 0.01,0.01 0,0.01 0,0.01 0,0.01 c 0,0.2 -0.18,0.2 -0.35,0.2 h -5.38 c -0.17,0 -0.35,0 -0.35,-0.2 0,-0.2 0.18,-0.2 0.35,-0.2 z"
   inkscape:connector-curvature="0"
   style="fill:#000000;stroke-width:0" />
<path
   id="path4632"
   d="m 232.5,707.95 0.05,0.05 0.05,0.05 0.05,0.05 0.04,0.05 0.05,0.05 0.04,0.04 0.04,0.04 0.05,0.05 0.04,0.04 0.03,0.04 0.04,0.03 0.04,0.04 0.04,0.04 0.03,0.03 0.07,0.07 0.07,0.06 0.07,0.06 0.06,0.06 0.07,0.06 0.13,0.11 0.06,0.05 0.07,0.06 c 0,0.01 0.61,0.54 0.97,0.9 0.95,0.92 1.17,1.4 1.17,1.44 0,0.1 -0.09,0.1 -0.11,0.1 -0.07,0 -0.1,-0.02 -0.15,-0.11 -0.3,-0.48 -0.51,-0.64 -0.75,-0.64 -0.24,0 -0.36,0.15 -0.5,0.32 -0.19,0.23 -0.36,0.43 -0.69,0.43 -0.75,0 -1.2,-0.93 -1.2,-1.14 0,-0.05 0.02,-0.11 0.11,-0.11 0.09,0 0.11,0.05 0.13,0.11 0.19,0.46 0.77,0.47 0.85,0.47 0.21,0 0.4,-0.07 0.63,-0.15 0.39,-0.15 0.5,-0.15 0.76,-0.15 -0.36,-0.43 -1.19,-1.14 -1.38,-1.3 l -0.9,-0.83 c -0.67,-0.67 -1.02,-1.24 -1.02,-1.31 0,-0.09 0.1,-0.09 0.12,-0.09 0.08,0 0.1,0.02 0.16,0.13 0.23,0.34 0.52,0.61 0.84,0.61 0.23,0 0.33,-0.09 0.58,-0.38 0.17,-0.21 0.35,-0.36 0.64,-0.36 0.98,0 1.56,1.26 1.56,1.53 0,0.04 -0.04,0.1 -0.12,0.1 -0.09,0 -0.11,-0.06 -0.14,-0.13 -0.23,-0.65 -0.87,-0.84 -1.19,-0.84 -0.2,0 -0.38,0.06 -0.59,0.13 -0.34,0.13 -0.49,0.17 -0.7,0.17 -0.02,0 -0.18,0 -0.27,-0.03 z"
   inkscape:connector-curvature="0"
   style="fill:#000000;stroke-width:0" />
</g>  </g>
</svg>
