<?xml version="1.0" encoding="UTF-8" standalone="no"?>
<!-- Created with Inkscape (http://www.inkscape.org/) -->

<svg
   xmlns:ns0="http://www.iki.fi/pav/software/textext/"
   xmlns:dc="http://purl.org/dc/elements/1.1/"
   xmlns:cc="http://creativecommons.org/ns#"
   xmlns:rdf="http://www.w3.org/1999/02/22-rdf-syntax-ns#"
   xmlns:svg="http://www.w3.org/2000/svg"
   xmlns="http://www.w3.org/2000/svg"
   xmlns:sodipodi="http://sodipodi.sourceforge.net/DTD/sodipodi-0.dtd"
   xmlns:inkscape="http://www.inkscape.org/namespaces/inkscape"
   width="388.39987"
   height="245.46893"
   id="svg2"
   version="1.1"
   inkscape:version="0.48.3.1 r9886"
   sodipodi:docname="detector_module_1.svg">
  <sodipodi:namedview
     id="base"
     pagecolor="#ffffff"
     bordercolor="#666666"
     borderopacity="1.0"
     inkscape:pageopacity="0.0"
     inkscape:pageshadow="2"
     inkscape:zoom="2.8877087"
     inkscape:cx="193.52319"
     inkscape:cy="100.71708"
     inkscape:document-units="px"
     inkscape:current-layer="layer2"
     showgrid="true"
     inkscape:window-width="1920"
     inkscape:window-height="1144"
     inkscape:window-x="1600"
     inkscape:window-y="27"
     inkscape:window-maximized="1"
     inkscape:snap-grids="true"
     fit-margin-top="0"
     fit-margin-left="0"
     fit-margin-right="0"
     fit-margin-bottom="0">
    <inkscape:grid
       type="xygrid"
       id="grid2985"
       units="mm"
       empspacing="4"
       visible="true"
       enabled="true"
       snapvisiblegridlinesonly="true"
       originx="-38.595686mm"
       originy="-94.937651mm" />
  </sodipodi:namedview>
  <defs
     id="defs4">
    <marker
       inkscape:stockid="Arrow2Lend"
       orient="auto"
       refY="0"
       refX="0"
       id="Arrow2Lend"
       style="overflow:visible">
      <path
         id="path3966"
         style="fill-rule:evenodd;stroke-width:0.625;stroke-linejoin:round"
         d="M 8.7185878,4.0337352 -2.2072895,0.01601326 8.7185884,-4.0017078 c -1.7454984,2.3720609 -1.7354408,5.6174519 -6e-7,8.035443 z"
         transform="matrix(-1.1,0,0,-1.1,-1.1,0)"
         inkscape:connector-curvature="0" />
    </marker>
    <inkscape:path-effect
       effect="construct_grid"
       id="path-effect3804"
       is_visible="true"
       nr_x="26"
       nr_y="16" />
    <marker
       inkscape:stockid="Arrow2Lend"
       orient="auto"
       refY="0"
       refX="0"
       id="Arrow2Lend-5"
       style="overflow:visible">
      <path
         inkscape:connector-curvature="0"
         id="path3966-1"
         style="fill-rule:evenodd;stroke-width:0.625;stroke-linejoin:round"
         d="M 8.7185878,4.0337352 -2.2072895,0.01601326 8.7185884,-4.0017078 c -1.7454984,2.3720609 -1.7354408,5.6174519 -6e-7,8.035443 z"
         transform="matrix(-1.1,0,0,-1.1,-1.1,0)" />
    </marker>
  </defs>
  <metadata
     id="metadata7">
    <rdf:RDF>
      <cc:Work
         rdf:about="">
        <dc:format>image/svg+xml</dc:format>
        <dc:type
           rdf:resource="http://purl.org/dc/dcmitype/StillImage" />
        <dc:title />
      </cc:Work>
    </rdf:RDF>
  </metadata>
  <g
     inkscape:label="Pixels"
     inkscape:groupmode="layer"
     id="layer1"
     style="display:inline"
     transform="translate(-136.75637,-470.5)">
    <rect
       style="fill:#ff000d;fill-opacity:1;stroke:none"
       id="rect3811"
       width="14.173228"
       height="14.173228"
       x="155.90552"
       y="683.85822" />
    <path
       style="fill:none;stroke:#000000;stroke-width:0.30000001;stroke-linecap:butt;stroke-linejoin:miter;stroke-miterlimit:4;stroke-opacity:1;stroke-dasharray:none"
       d="m 155.90551,471.25982 0,226.77168 m 14.17323,-226.77168 0,226.77168 m 14.17323,-226.77168 0,226.77168 m 14.17323,-226.77168 0,226.77168 m 14.17323,-226.77168 0,226.77168 m 14.17323,-226.77168 0,226.77168 m 14.17323,-226.77168 0,226.77168 m 14.17323,-226.77168 0,226.77168 m 14.17323,-226.77168 0,226.77168 m 14.17323,-226.77168 0,226.77168 m 14.17323,-226.77168 0,226.77168 m 14.17323,-226.77168 0,226.77168 m 14.17323,-226.77168 0,226.77168 m 14.17323,-226.77168 0,226.77168 m 14.17323,-226.77168 0,226.77168 m 14.17323,-226.77168 0,226.77168 m 14.17323,-226.77168 0,226.77168 m 14.17323,-226.77168 0,226.77168 m 14.17323,-226.77168 0,226.77168 m 14.17323,-226.77168 0,226.77168 m 14.17323,-226.77168 0,226.77168 m 14.17323,-226.77168 0,226.77168 m 14.17323,-226.77168 0,226.77168 m 14.17323,-226.77168 0,226.77168 m 14.17323,-226.77168 0,226.77168 m 14.17323,-226.77168 0,226.77168 m 14.17323,-226.77168 0,226.77168 m -368.50398,-226.77168 368.50398,0 m -368.50398,14.17323 368.50398,0 m -368.50398,14.17323 368.50398,0 m -368.50398,14.17323 368.50398,0 m -368.50398,14.17323 368.50398,0 m -368.50398,14.17323 368.50398,0 m -368.50398,14.17323 368.50398,0 m -368.50398,14.17323 368.50398,0 m -368.50398,14.17323 368.50398,0 m -368.50398,14.17323 368.50398,0 m -368.50398,14.17323 368.50398,0 m -368.50398,14.17323 368.50398,0 m -368.50398,14.17323 368.50398,0 m -368.50398,14.17323 368.50398,0 m -368.50398,14.17323 368.50398,0 m -368.50398,14.17323 368.50398,0 m -368.50398,14.17323 368.50398,0"
       id="path3802"
       inkscape:connector-curvature="0"
       inkscape:path-effect="#path-effect3804"
       inkscape:original-d="m 155.90551,485.43305 0,-14.17323 14.17323,0" />
    <rect
       style="fill:#0011ff;fill-opacity:1;stroke:none;display:inline"
       id="rect3811-0"
       width="14.173228"
       height="14.173228"
       x="240.94489"
       y="570.47241" />
    <rect
       style="fill:#0011ff;fill-opacity:1;stroke:none;display:inline"
       id="rect3811-0-5"
       width="14.173228"
       height="14.173228"
       x="240.94489"
       y="683.85822" />
    <rect
       style="fill:#0011ff;fill-opacity:1;stroke:none;display:inline"
       id="rect3811-0-53"
       width="14.173228"
       height="14.173228"
       x="439.37009"
       y="683.85822" />
  </g>
  <g
     inkscape:groupmode="layer"
     id="layer2"
     inkscape:label="Modules"
     transform="translate(-136.75637,-470.5)">
    <g
       style="display:inline"
       id="g3795">
      <rect
         y="471.25983"
         x="155.90552"
         height="226.77167"
         width="85.039375"
         id="rect2987"
         style="fill:#ffefc7;fill-opacity:0.75097273;stroke:#000000;stroke-width:1.5;stroke-miterlimit:4;stroke-opacity:1;stroke-dasharray:none" />
      <rect
         y="584.64563"
         x="240.94489"
         height="113.38583"
         width="198.4252"
         id="rect3757"
         style="fill:#ffefc7;fill-opacity:0.72373538;stroke:#000000;stroke-width:1.5;stroke-miterlimit:4;stroke-opacity:1;stroke-dasharray:none;stroke-dashoffset:0" />
      <rect
         y="471.25983"
         x="240.94489"
         height="113.38583"
         width="198.4252"
         id="rect3757-5"
         style="fill:#ffefc7;fill-opacity:0.72373538;stroke:#000000;stroke-width:1.5;stroke-miterlimit:4;stroke-opacity:1;stroke-dasharray:none;stroke-dashoffset:0" />
      <rect
         y="471.25983"
         x="439.37009"
         height="226.77167"
         width="85.039375"
         id="rect2987-1"
         style="fill:#ffefc7;fill-opacity:0.72373538;stroke:#000000;stroke-width:1.5;stroke-miterlimit:4;stroke-opacity:1;stroke-dasharray:none" />
    </g>
    <text
       xml:space="preserve"
       style="font-size:40px;font-style:normal;font-weight:normal;line-height:125%;letter-spacing:0px;word-spacing:0px;fill:#000000;fill-opacity:1;stroke:none;display:inline;font-family:Sans"
       x="162.99213"
       y="584.64563"
       id="text3813"
       sodipodi:linespacing="125%"><tspan
         sodipodi:role="line"
         id="tspan3815"
         x="162.99213"
         y="584.64563"
         style="font-size:14px;font-weight:bold;-inkscape-font-specification:Sans Bold">Module 1</tspan></text>
    <text
       xml:space="preserve"
       style="font-size:40px;font-style:normal;font-weight:normal;line-height:125%;letter-spacing:0px;word-spacing:0px;fill:#000000;fill-opacity:1;stroke:none;display:inline;font-family:Sans"
       x="304.7244"
       y="527.95276"
       id="text3813-0"
       sodipodi:linespacing="125%"><tspan
         sodipodi:role="line"
         id="tspan3815-2"
         x="304.7244"
         y="527.95276"
         style="font-size:14px;font-weight:bold;-inkscape-font-specification:Sans Bold">Module 2</tspan></text>
    <text
       xml:space="preserve"
       style="font-size:40px;font-style:normal;font-weight:normal;line-height:125%;letter-spacing:0px;word-spacing:0px;fill:#000000;fill-opacity:1;stroke:none;display:inline;font-family:Sans"
       x="304.7244"
       y="641.33856"
       id="text3813-0-7"
       sodipodi:linespacing="125%"><tspan
         sodipodi:role="line"
         id="tspan3815-2-7"
         x="304.7244"
         y="641.33856"
         style="font-size:14px;font-weight:bold;-inkscape-font-specification:Sans Bold">Module 3</tspan></text>
    <text
       xml:space="preserve"
       style="font-size:40px;font-style:normal;font-weight:normal;line-height:125%;letter-spacing:0px;word-spacing:0px;fill:#000000;fill-opacity:1;stroke:none;display:inline;font-family:Sans"
       x="446.4567"
       y="584.64563"
       id="text3813-0-4"
       sodipodi:linespacing="125%"><tspan
         sodipodi:role="line"
         id="tspan3815-2-5"
         x="446.4567"
         y="584.64563"
         style="font-size:14px;font-weight:bold;-inkscape-font-specification:Sans Bold">Module 4</tspan></text>
    <path
       style="fill:none;stroke:#000000;stroke-width:1px;stroke-linecap:butt;stroke-linejoin:miter;stroke-opacity:1;marker-end:url(#Arrow2Lend)"
       d="m 141.73228,708.6614 113.38583,0"
       id="path3939"
       inkscape:connector-curvature="0" />
    <path
       style="fill:none;stroke:#000000;stroke-width:1px;stroke-linecap:butt;stroke-linejoin:miter;stroke-opacity:1;marker-end:url(#Arrow2Lend)"
       d="m 141.73228,708.6614 0,-113.38583"
       id="path3939-8"
       inkscape:connector-curvature="0" />
    <g
       style="font-style:normal;font-variant:normal;font-weight:normal;font-stretch:normal;letter-spacing:normal;word-spacing:normal;text-anchor:start;fill:none;stroke:#000000;stroke-linecap:butt;stroke-linejoin:miter;stroke-miterlimit:10.43299961;stroke-opacity:1;stroke-dasharray:none;stroke-dashoffset:0"
       id="content"
       transform="matrix(2.3189439,0,0,-2.3189439,-260.09569,2355.3898)"
       xml:space="preserve"
       stroke-miterlimit="10.433"
       font-style="normal"
       font-variant="normal"
       font-weight="normal"
       font-stretch="normal"
       font-size-adjust="none"
       letter-spacing="normal"
       word-spacing="normal"
       ns0:text="$x$"
       ns0:preamble="">
<path
   style="fill:#000000;stroke-width:0"
   inkscape:connector-curvature="0"
   d="m 226.76,710.12 0,0.03 0.01,0.03 0.01,0.03 0.01,0.04 0.01,0.04 0.01,0.04 0.01,0.04 0.02,0.05 0.01,0.04 0.02,0.05 0.02,0.05 0.02,0.05 0.02,0.05 0.03,0.05 0.02,0.05 0.03,0.05 0.03,0.05 0.03,0.04 0.03,0.05 0.04,0.04 0.04,0.05 0.04,0.04 0.04,0.04 0.04,0.03 0.05,0.03 0.05,0.03 0.02,0.01 0.03,0.02 0.02,0.01 0.03,0.01 0.03,0.01 0.03,0 0.03,0.01 0.02,0.01 0.04,0 0.03,0 0.03,0.01 0.03,0 c 0.05,0 0.29,0 0.5,-0.13 -0.28,-0.05 -0.48,-0.3 -0.48,-0.54 0,-0.16 0.11,-0.35 0.38,-0.35 0.22,0 0.54,0.18 0.54,0.58 0,0.52 -0.59,0.66 -0.93,0.66 -0.58,0 -0.93,-0.53 -1.04,-0.76 -0.25,0.66 -0.79,0.76 -1.08,0.76 -1.03,0 -1.6,-1.29 -1.6,-1.53 0,-0.1 0.1,-0.1 0.12,-0.1 0.08,0 0.11,0.02 0.13,0.11 0.34,1.05 0.99,1.3 1.33,1.3 0.19,0 0.54,-0.09 0.54,-0.67 0,-0.31 -0.17,-0.97 -0.54,-2.36 -0.16,-0.62 -0.51,-1.04 -0.94,-1.04 -0.06,0 -0.29,0 -0.5,0.13 0.25,0.05 0.47,0.26 0.47,0.54 0,0.27 -0.22,0.35 -0.37,0.35 -0.3,0 -0.55,-0.26 -0.55,-0.58 0,-0.46 0.5,-0.65 0.94,-0.65 0.65,0 1.01,0.69 1.04,0.75 0.12,-0.37 0.48,-0.75 1.07,-0.75 1.03,0 1.6,1.28 1.6,1.53 0,0.1 -0.09,0.1 -0.12,0.1 -0.09,0 -0.11,-0.05 -0.13,-0.11 -0.33,-1.07 -1.01,-1.31 -1.33,-1.31 -0.38,0 -0.54,0.32 -0.54,0.66 0,0.22 0.06,0.44 0.17,0.87 z"
   id="path4442" />
</g>    <g
       style="font-style:normal;font-variant:normal;font-weight:normal;font-stretch:normal;letter-spacing:normal;word-spacing:normal;text-anchor:start;fill:none;stroke:#000000;stroke-linecap:butt;stroke-linejoin:miter;stroke-miterlimit:10.43299961;stroke-opacity:1;stroke-dasharray:none;stroke-dashoffset:0"
       ns0:preamble=""
       ns0:text="$y$"
       word-spacing="normal"
       letter-spacing="normal"
       font-size-adjust="none"
       font-stretch="normal"
       font-weight="normal"
       font-variant="normal"
       font-style="normal"
       stroke-miterlimit="10.433"
       xml:space="preserve"
       transform="matrix(2.3189439,0,0,-2.3189439,-381.88993,2223.7077)"
       id="g4531">
<path
   id="path4533"
   d="m 228.27,710.91 0,0.01 0,0 0,0.01 0,0 0.01,0.02 0,0.01 0,0.01 0.01,0.01 0,0.01 0,0 0,0.01 0,0.01 0.01,0.01 0,0.01 0,0 0,0.01 0,0 0,0.01 0,0.01 0,0 0,0.01 0,0 0.01,0.01 0,0.01 0,0.01 0,0.01 0,0.01 0,0.01 0,0 0,0.01 c 0,0.18 -0.14,0.27 -0.29,0.27 -0.1,0 -0.26,-0.06 -0.35,-0.21 -0.02,-0.05 -0.1,-0.36 -0.14,-0.54 -0.07,-0.26 -0.14,-0.52 -0.2,-0.79 l -0.45,-1.79 c -0.03,-0.15 -0.46,-0.85 -1.12,-0.85 -0.51,0 -0.62,0.44 -0.62,0.81 0,0.46 0.17,1.07 0.51,1.95 0.16,0.4 0.2,0.51 0.2,0.71 0,0.45 -0.32,0.82 -0.82,0.82 -0.94,0 -1.31,-1.44 -1.31,-1.53 0,-0.1 0.1,-0.1 0.12,-0.1 0.1,0 0.11,0.02 0.16,0.18 0.27,0.93 0.67,1.23 1,1.23 0.08,0 0.25,0 0.25,-0.32 0,-0.25 -0.1,-0.51 -0.17,-0.7 -0.39,-1.05 -0.57,-1.62 -0.57,-2.08 0,-0.89 0.62,-1.18 1.21,-1.18 0.39,0 0.73,0.16 1.01,0.44 -0.13,-0.51 -0.25,-1 -0.65,-1.53 -0.26,-0.34 -0.64,-0.62 -1.1,-0.62 -0.13,0 -0.58,0.03 -0.75,0.41 0.16,0 0.29,0 0.43,0.12 0.1,0.09 0.19,0.22 0.19,0.41 0,0.31 -0.26,0.35 -0.36,0.35 -0.23,0 -0.56,-0.16 -0.56,-0.65 0,-0.49 0.44,-0.86 1.05,-0.86 1.03,0 2.05,0.9 2.33,2.02 z"
   inkscape:connector-curvature="0"
   style="fill:#000000;stroke-width:0" />
</g>  </g>
</svg>
