<?xml version="1.0" encoding="UTF-8" standalone="no"?>
<!-- Created with Inkscape (http://www.inkscape.org/) -->

<svg
   xmlns:dc="http://purl.org/dc/elements/1.1/"
   xmlns:cc="http://creativecommons.org/ns#"
   xmlns:rdf="http://www.w3.org/1999/02/22-rdf-syntax-ns#"
   xmlns:svg="http://www.w3.org/2000/svg"
   xmlns="http://www.w3.org/2000/svg"
   xmlns:sodipodi="http://sodipodi.sourceforge.net/DTD/sodipodi-0.dtd"
   xmlns:inkscape="http://www.inkscape.org/namespaces/inkscape"
   width="227.78125"
   height="256.125"
   id="svg2"
   version="1.1"
   inkscape:version="0.48.5 r10040"
   sodipodi:docname="detector_origin.svg"
   inkscape:export-filename="/home/eugen/Development/nexus/src/definitions/manual/source/img/detector_origin.png"
   inkscape:export-xdpi="130"
   inkscape:export-ydpi="130">
  <sodipodi:namedview
     id="base"
     pagecolor="#ffffff"
     bordercolor="#666666"
     borderopacity="1.0"
     inkscape:pageopacity="0.0"
     inkscape:pageshadow="2"
     inkscape:zoom="2.8"
     inkscape:cx="145.04282"
     inkscape:cy="130.37828"
     inkscape:document-units="px"
     inkscape:current-layer="layer1"
     showgrid="true"
     inkscape:window-width="1920"
     inkscape:window-height="1014"
     inkscape:window-x="0"
     inkscape:window-y="27"
     inkscape:window-maximized="1"
     fit-margin-top="0"
     fit-margin-left="0"
     fit-margin-right="0"
     fit-margin-bottom="0">
    <inkscape:grid
       originy="-91.859716mm"
       originx="-59.857569mm"
       type="xygrid"
       id="grid2985"
       empspacing="4"
       visible="true"
       enabled="true"
       snapvisiblegridlinesonly="true"
       units="mm"
       spacingx="1mm"
       spacingy="1mm" />
  </sodipodi:namedview>
  <defs
     id="defs4">
    <marker
       inkscape:stockid="Arrow2Lend"
       orient="auto"
       refY="0"
       refX="0"
       id="Arrow2Lend"
       style="overflow:visible">
      <path
         inkscape:connector-curvature="0"
         id="path3788"
         style="fill-rule:evenodd;stroke-width:0.625;stroke-linejoin:round"
         d="M 8.7185878,4.0337352 -2.2072895,0.01601326 8.7185884,-4.0017078 c -1.7454984,2.3720609 -1.7354408,5.6174519 -6e-7,8.035443 z"
         transform="matrix(-1.1,0,0,-1.1,-1.1,0)" />
    </marker>
    <inkscape:path-effect
       effect="construct_grid"
       id="path-effect2989"
       is_visible="true"
       nr_x="8"
       nr_y="9" />
    <marker
       inkscape:stockid="Arrow2LendF"
       orient="auto"
       refY="0"
       refX="0"
       id="Arrow2LendF"
       style="overflow:visible">
      <path
         inkscape:connector-curvature="0"
         id="path4213"
         style="fill:#2bff00;fill-rule:evenodd;stroke:#2bff00;stroke-width:0.625;stroke-linejoin:round"
         d="M 8.7185878,4.0337352 -2.2072895,0.01601326 8.7185884,-4.0017078 c -1.7454984,2.3720609 -1.7354408,5.6174519 -6e-7,8.035443 z"
         transform="matrix(-1.1,0,0,-1.1,-1.1,0)" />
    </marker>
    <marker
       inkscape:stockid="Arrow2LendF"
       orient="auto"
       refY="0"
       refX="0"
       id="Arrow2LendF-2"
       style="overflow:visible">
      <path
         id="path4213-8"
         style="fill:#2bff00;fill-rule:evenodd;stroke:#2bff00;stroke-width:0.625;stroke-linejoin:round"
         d="M 8.7185878,4.0337352 -2.2072895,0.01601326 8.7185884,-4.0017078 c -1.7454984,2.3720609 -1.7354408,5.6174519 -6e-7,8.035443 z"
         transform="matrix(-1.1,0,0,-1.1,-1.1,0)"
         inkscape:connector-curvature="0" />
    </marker>
    <marker
       inkscape:stockid="Arrow2LendF"
       orient="auto"
       refY="0"
       refX="0"
       id="Arrow2LendF-8"
       style="overflow:visible">
      <path
         id="path4213-2"
         style="fill:#2bff00;fill-rule:evenodd;stroke:#2bff00;stroke-width:0.625;stroke-linejoin:round"
         d="M 8.7185878,4.0337352 -2.2072895,0.01601326 8.7185884,-4.0017078 c -1.7454984,2.3720609 -1.7354408,5.6174519 -6e-7,8.035443 z"
         transform="matrix(-1.1,0,0,-1.1,-1.1,0)"
         inkscape:connector-curvature="0" />
    </marker>
    <marker
       inkscape:stockid="Arrow2LendF"
       orient="auto"
       refY="0"
       refX="0"
       id="Arrow2LendF-20"
       style="overflow:visible">
      <path
         id="path4213-6"
         style="fill:#2bff00;fill-rule:evenodd;stroke:#2bff00;stroke-width:0.625;stroke-linejoin:round"
         d="M 8.7185878,4.0337352 -2.2072895,0.01601326 8.7185884,-4.0017078 c -1.7454984,2.3720609 -1.7354408,5.6174519 -6e-7,8.035443 z"
         transform="matrix(-1.1,0,0,-1.1,-1.1,0)"
         inkscape:connector-curvature="0" />
    </marker>
    <marker
       inkscape:stockid="Arrow2LendF"
       orient="auto"
       refY="0"
       refX="0"
       id="Arrow2LendF-1"
       style="overflow:visible">
      <path
         id="path4213-1"
         style="fill:#2bff00;fill-rule:evenodd;stroke:#2bff00;stroke-width:0.625;stroke-linejoin:round"
         d="M 8.7185878,4.0337352 -2.2072895,0.01601326 8.7185884,-4.0017078 c -1.7454984,2.3720609 -1.7354408,5.6174519 -6e-7,8.035443 z"
         transform="matrix(-1.1,0,0,-1.1,-1.1,0)"
         inkscape:connector-curvature="0" />
    </marker>
    <marker
       inkscape:stockid="Arrow2LendF"
       orient="auto"
       refY="0"
       refX="0"
       id="Arrow2LendF-0"
       style="overflow:visible">
      <path
         id="path4213-24"
         style="fill:#2bff00;fill-rule:evenodd;stroke:#2bff00;stroke-width:0.625;stroke-linejoin:round"
         d="M 8.7185878,4.0337352 -2.2072895,0.01601326 8.7185884,-4.0017078 c -1.7454984,2.3720609 -1.7354408,5.6174519 -6e-7,8.035443 z"
         transform="matrix(-1.1,0,0,-1.1,-1.1,0)"
         inkscape:connector-curvature="0" />
    </marker>
    <marker
       inkscape:stockid="Arrow2LendF"
       orient="auto"
       refY="0"
       refX="0"
       id="Arrow2LendF-9"
       style="overflow:visible">
      <path
         id="path4213-81"
         style="fill:#2bff00;fill-rule:evenodd;stroke:#2bff00;stroke-width:0.625;stroke-linejoin:round"
         d="M 8.7185878,4.0337352 -2.2072895,0.01601326 8.7185884,-4.0017078 c -1.7454984,2.3720609 -1.7354408,5.6174519 -6e-7,8.035443 z"
         transform="matrix(-1.1,0,0,-1.1,-1.1,0)"
         inkscape:connector-curvature="0" />
    </marker>
    <marker
       inkscape:stockid="Arrow2LendF"
       orient="auto"
       refY="0"
       refX="0"
       id="Arrow2LendF-97"
       style="overflow:visible">
      <path
         id="path4213-4"
         style="fill:#2bff00;fill-rule:evenodd;stroke:#2bff00;stroke-width:0.625;stroke-linejoin:round"
         d="M 8.7185878,4.0337352 -2.2072895,0.01601326 8.7185884,-4.0017078 c -1.7454984,2.3720609 -1.7354408,5.6174519 -6e-7,8.035443 z"
         transform="matrix(-1.1,0,0,-1.1,-1.1,0)"
         inkscape:connector-curvature="0" />
    </marker>
    <marker
       inkscape:stockid="Arrow2LendF"
       orient="auto"
       refY="0"
       refX="0"
       id="Arrow2LendF-4"
       style="overflow:visible">
      <path
         id="path4213-249"
         style="fill:#2bff00;fill-rule:evenodd;stroke:#2bff00;stroke-width:0.625;stroke-linejoin:round"
         d="M 8.7185878,4.0337352 -2.2072895,0.01601326 8.7185884,-4.0017078 c -1.7454984,2.3720609 -1.7354408,5.6174519 -6e-7,8.035443 z"
         transform="matrix(-1.1,0,0,-1.1,-1.1,0)"
         inkscape:connector-curvature="0" />
    </marker>
    <marker
       inkscape:stockid="Arrow2LendFV"
       orient="auto"
       refY="0"
       refX="0"
       id="Arrow2LendFV"
       style="overflow:visible">
      <path
         inkscape:connector-curvature="0"
         id="path4461"
         style="stroke-width:0.625;stroke-linejoin:round;stroke:#15a100;fill-rule:evenodd;fill:#15a100"
         d="M 8.7185878,4.0337352 -2.2072895,0.01601326 8.7185884,-4.0017078 c -1.7454984,2.3720609 -1.7354408,5.6174519 -6e-7,8.035443 z"
         transform="matrix(-1.1,0,0,-1.1,-1.1,0)" />
    </marker>
    <marker
       inkscape:stockid="Arrow2LendFR"
       orient="auto"
       refY="0"
       refX="0"
       id="Arrow2LendFR"
       style="overflow:visible">
      <path
         inkscape:connector-curvature="0"
         id="path4464"
         style="stroke-width:0.625;stroke-linejoin:round;stroke:#15a100;fill-rule:evenodd;fill:#15a100"
         d="M 8.7185878,4.0337352 -2.2072895,0.01601326 8.7185884,-4.0017078 c -1.7454984,2.3720609 -1.7354408,5.6174519 -6e-7,8.035443 z"
         transform="matrix(-1.1,0,0,-1.1,-1.1,0)" />
    </marker>
    <marker
       inkscape:stockid="Arrow2LendFI"
       orient="auto"
       refY="0"
       refX="0"
       id="Arrow2LendFI"
       style="overflow:visible">
      <path
         inkscape:connector-curvature="0"
         id="path4467"
         style="stroke-width:0.625;stroke-linejoin:round;stroke:#15a100;fill-rule:evenodd;fill:#15a100"
         d="M 8.7185878,4.0337352 -2.2072895,0.01601326 8.7185884,-4.0017078 c -1.7454984,2.3720609 -1.7354408,5.6174519 -6e-7,8.035443 z"
         transform="matrix(-1.1,0,0,-1.1,-1.1,0)" />
    </marker>
    <marker
       inkscape:stockid="Arrow2LendFv"
       orient="auto"
       refY="0"
       refX="0"
       id="Arrow2LendFv"
       style="overflow:visible">
      <path
         inkscape:connector-curvature="0"
         id="path4470"
         style="stroke-width:0.625;stroke-linejoin:round;stroke:#15a100;fill-rule:evenodd;fill:#15a100"
         d="M 8.7185878,4.0337352 -2.2072895,0.01601326 8.7185884,-4.0017078 c -1.7454984,2.3720609 -1.7354408,5.6174519 -6e-7,8.035443 z"
         transform="matrix(-1.1,0,0,-1.1,-1.1,0)" />
    </marker>
    <marker
       inkscape:stockid="Arrow2LendFl"
       orient="auto"
       refY="0"
       refX="0"
       id="Arrow2LendFl"
       style="overflow:visible">
      <path
         inkscape:connector-curvature="0"
         id="path4473"
         style="stroke-width:0.625;stroke-linejoin:round;stroke:#15a100;fill-rule:evenodd;fill:#15a100"
         d="M 8.7185878,4.0337352 -2.2072895,0.01601326 8.7185884,-4.0017078 c -1.7454984,2.3720609 -1.7354408,5.6174519 -6e-7,8.035443 z"
         transform="matrix(-1.1,0,0,-1.1,-1.1,0)" />
    </marker>
    <marker
       inkscape:stockid="Arrow2LendFd"
       orient="auto"
       refY="0"
       refX="0"
       id="Arrow2LendFd"
       style="overflow:visible">
      <path
         inkscape:connector-curvature="0"
         id="path4476"
         style="stroke-width:0.625;stroke-linejoin:round;stroke:#15a100;fill-rule:evenodd;fill:#15a100"
         d="M 8.7185878,4.0337352 -2.2072895,0.01601326 8.7185884,-4.0017078 c -1.7454984,2.3720609 -1.7354408,5.6174519 -6e-7,8.035443 z"
         transform="matrix(-1.1,0,0,-1.1,-1.1,0)" />
    </marker>
    <marker
       inkscape:stockid="Arrow2LendFlc"
       orient="auto"
       refY="0"
       refX="0"
       id="Arrow2LendFlc"
       style="overflow:visible">
      <path
         inkscape:connector-curvature="0"
         id="path4479"
         style="stroke-width:0.625;stroke-linejoin:round;stroke:#15a100;fill-rule:evenodd;fill:#15a100"
         d="M 8.7185878,4.0337352 -2.2072895,0.01601326 8.7185884,-4.0017078 c -1.7454984,2.3720609 -1.7354408,5.6174519 -6e-7,8.035443 z"
         transform="matrix(-1.1,0,0,-1.1,-1.1,0)" />
    </marker>
    <marker
       inkscape:stockid="Arrow2LendFK"
       orient="auto"
       refY="0"
       refX="0"
       id="Arrow2LendFK"
       style="overflow:visible">
      <path
         inkscape:connector-curvature="0"
         id="path4482"
         style="stroke-width:0.625;stroke-linejoin:round;stroke:#15a100;fill-rule:evenodd;fill:#15a100"
         d="M 8.7185878,4.0337352 -2.2072895,0.01601326 8.7185884,-4.0017078 c -1.7454984,2.3720609 -1.7354408,5.6174519 -6e-7,8.035443 z"
         transform="matrix(-1.1,0,0,-1.1,-1.1,0)" />
    </marker>
    <marker
       inkscape:stockid="Arrow2LendFA"
       orient="auto"
       refY="0"
       refX="0"
       id="Arrow2LendFA"
       style="overflow:visible">
      <path
         inkscape:connector-curvature="0"
         id="path4485"
         style="stroke-width:0.625;stroke-linejoin:round;stroke:#15a100;fill-rule:evenodd;fill:#15a100"
         d="M 8.7185878,4.0337352 -2.2072895,0.01601326 8.7185884,-4.0017078 c -1.7454984,2.3720609 -1.7354408,5.6174519 -6e-7,8.035443 z"
         transform="matrix(-1.1,0,0,-1.1,-1.1,0)" />
    </marker>
  </defs>
  <metadata
     id="metadata7">
    <rdf:RDF>
      <cc:Work
         rdf:about="">
        <dc:format>image/svg+xml</dc:format>
        <dc:type
           rdf:resource="http://purl.org/dc/dcmitype/StillImage" />
        <dc:title></dc:title>
      </cc:Work>
    </rdf:RDF>
  </metadata>
  <g
     transform="translate(-212.09375,-470.75)"
     inkscape:label="Layer 1"
     inkscape:groupmode="layer"
     id="layer1">
    <rect
       style="fill:#ff0000;fill-opacity:1;stroke:none"
       id="rect2991"
       width="28.346457"
       height="28.346457"
       x="212.59842"
       y="698.03149" />
    <path
       style="fill:none;stroke:#bebebe;stroke-width:1px;stroke-linecap:butt;stroke-linejoin:miter;stroke-opacity:1"
       d="m 212.59843,471.25982 0,255.11814 m 28.34645,-255.11814 0,255.11814 m 28.34645,-255.11814 0,255.11814 m 28.34645,-255.11814 0,255.11814 m 28.34645,-255.11814 0,255.11814 m 28.34645,-255.11814 0,255.11814 m 28.34645,-255.11814 0,255.11814 m 28.34645,-255.11814 0,255.11814 m 28.34645,-255.11814 0,255.11814 m -226.7716,-255.11814 226.7716,0 m -226.7716,28.34646 226.7716,0 m -226.7716,28.34646 226.7716,0 m -226.7716,28.34646 226.7716,0 m -226.7716,28.34646 226.7716,0 m -226.7716,28.34646 226.7716,0 m -226.7716,28.34646 226.7716,0 m -226.7716,28.34646 226.7716,0 m -226.7716,28.34646 226.7716,0 m -226.7716,28.34646 226.7716,0"
       id="path2987"
       inkscape:connector-curvature="0"
       inkscape:path-effect="#path-effect2989"
       inkscape:original-d="m 212.59843,499.60628 0,-28.34646 28.34645,0" />
    <path
       style="stroke-linejoin:miter;marker-end:url(#Arrow2LendFV);stroke-opacity:1;stroke:#15a100;stroke-linecap:butt;stroke-miterlimit:4;stroke-dasharray:none;stroke-width:1;fill:none"
       d="m 226.77165,712.2047 198.4252,0"
       id="path3761"
       inkscape:connector-curvature="0" />
    <path
       style="stroke-linejoin:miter;marker-end:url(#Arrow2LendFK);stroke-opacity:1;stroke:#15a100;stroke-linecap:butt;stroke-miterlimit:4;stroke-dasharray:none;stroke-width:1;fill:none"
       d="m 226.77165,683.85825 198.4252,0"
       id="path3761-2"
       inkscape:connector-curvature="0" />
    <path
       style="stroke-linejoin:miter;marker-end:url(#Arrow2LendFl);stroke-opacity:1;stroke:#15a100;stroke-linecap:butt;stroke-miterlimit:4;stroke-dasharray:none;stroke-width:1;fill:none"
       d="m 226.77165,655.51179 198.4252,0"
       id="path3761-1"
       inkscape:connector-curvature="0" />
    <path
       style="stroke-linejoin:miter;marker-end:url(#Arrow2LendFv);stroke-opacity:1;stroke:#15a100;stroke-linecap:butt;stroke-miterlimit:4;stroke-dasharray:none;stroke-width:1;fill:none"
       d="m 226.77165,627.16533 198.4252,0"
       id="path3761-8"
       inkscape:connector-curvature="0" />
    <path
       style="stroke-linejoin:miter;marker-end:url(#Arrow2LendFlc);stroke-opacity:1;stroke:#15a100;stroke-linecap:butt;stroke-miterlimit:4;stroke-dasharray:none;stroke-width:1;fill:none"
       d="m 226.77165,598.81888 198.4252,0"
       id="path3761-3"
       inkscape:connector-curvature="0" />
    <path
       style="stroke-linejoin:miter;marker-end:url(#Arrow2LendFR);stroke-opacity:1;stroke:#15a100;stroke-linecap:butt;stroke-miterlimit:4;stroke-dasharray:none;stroke-width:1;fill:none"
       d="m 226.77165,570.47242 198.4252,0"
       id="path3761-25"
       inkscape:connector-curvature="0" />
    <path
       style="stroke-linejoin:miter;marker-end:url(#Arrow2LendFd);stroke-opacity:1;stroke:#15a100;stroke-linecap:butt;stroke-miterlimit:4;stroke-dasharray:none;stroke-width:1;fill:none"
       d="m 226.77165,542.12596 198.42521,0"
       id="path3761-0"
       inkscape:connector-curvature="0" />
    <path
       style="stroke-linejoin:miter;marker-end:url(#Arrow2LendFI);stroke-opacity:1;stroke:#15a100;stroke-linecap:butt;stroke-miterlimit:4;stroke-dasharray:none;stroke-width:1;fill:none"
       d="m 226.77165,513.77951 198.4252,0"
       id="path3761-9"
       inkscape:connector-curvature="0" />
    <path
       style="stroke-linejoin:miter;marker-end:url(#Arrow2LendFA);stroke-opacity:1;stroke:#15a100;stroke-linecap:butt;stroke-miterlimit:4;stroke-dasharray:none;stroke-width:1;fill:none"
       d="m 226.77165,485.43305 198.4252,0"
       id="path3761-5"
       inkscape:connector-curvature="0" />
    <path
       inkscape:connector-curvature="0"
       id="path4335"
       d="M 425.19685,712.2047 226.77165,683.85825"
       style="stroke-linejoin:miter;stroke-opacity:1;stroke:#15a100;stroke-linecap:butt;stroke-width:1px;fill:none" />
    <path
       inkscape:connector-curvature="0"
       id="path4335-8"
       d="M 421.65355,683.85824 223.22835,655.51179"
       style="fill:none;stroke:#098800;stroke-width:1px;stroke-linecap:butt;stroke-linejoin:miter;stroke-opacity:1"
       inkscape:export-xdpi="130"
       inkscape:export-ydpi="130"
       inkscape:export-filename="/home/eugen/Development/nexus/src/definitions/manual/source/img/detector_origin.png" />
    <path
       inkscape:connector-curvature="0"
       id="path4335-7"
       d="M 425.19685,655.51178 226.77165,627.16533"
       style="stroke-linejoin:miter;stroke-opacity:1;stroke:#15a100;stroke-linecap:butt;stroke-width:1px;fill:none" />
    <path
       inkscape:connector-curvature="0"
       id="path4335-9"
       d="M 425.19685,627.16533 226.77165,598.81888"
       style="stroke-linejoin:miter;stroke-opacity:1;stroke:#15a100;stroke-linecap:butt;stroke-width:1px;fill:none" />
    <path
       inkscape:connector-curvature="0"
       id="path4335-6"
       d="M 425.19685,598.81887 226.77165,570.47242"
       style="stroke-linejoin:miter;stroke-opacity:1;stroke:#15a100;stroke-linecap:butt;stroke-width:1px;fill:none" />
    <path
       inkscape:connector-curvature="0"
       id="path4335-0"
       d="M 425.19685,570.47241 226.77165,542.12596"
       style="stroke-linejoin:miter;stroke-opacity:1;stroke:#15a100;stroke-linecap:butt;stroke-width:1px;fill:none" />
    <path
       inkscape:connector-curvature="0"
       id="path4335-08"
       d="M 425.19685,542.12596 226.77165,513.77951"
       style="stroke-linejoin:miter;stroke-opacity:1;stroke:#15a100;stroke-linecap:butt;stroke-width:1px;fill:none" />
    <path
       inkscape:connector-curvature="0"
       id="path4335-2"
       d="M 425.19685,513.7795 226.77165,485.43305"
       style="stroke-linejoin:miter;stroke-opacity:1;stroke:#15a100;stroke-linecap:butt;stroke-width:1px;fill:none" />
  </g>
</svg>
